<svg width="38" height="31" fill="none" xmlns="http://www.w3.org/2000/svg"><path d="M17.86 0L3.63 10.767v8.939l14.23 10.767c-.03-22.971 0-11.697 0-30.473z" fill="#B3B3B3"/><path d="M0 22.65h7.47V7.812H0V22.65zm23.69.166c-.38 0-.75-.137-1.044-.386a1.715 1.715 0 01-.571-.982 1.754 1.754 0 01.158-1.133c.178-.348.466-.622.817-.774a4.54 4.54 0 001.998-1.722 4.763 4.763 0 00.742-2.577 4.7 4.7 0 00-.35-1.809 4.656 4.656 0 00-1-1.477 4.621 4.621 0 00-1.43-1.034 1.682 1.682 0 01-.753-.931 1.746 1.746 0 01.044-1.213 1.67 1.67 0 01.817-.872 1.592 1.592 0 011.172-.084 7.871 7.871 0 013.008 2.35 8.222 8.222 0 011.599 3.528 8.36 8.36 0 01-.18 3.891 8.162 8.162 0 01-1.917 3.355 7.642 7.642 0 01-2.47 1.726c-.202.092-.42.14-.64.144z" fill="#B3B3B3"/></svg>