<svg width="38" height="31" fill="none" xmlns="http://www.w3.org/2000/svg"><path d="M17.86 0L3.63 10.767v8.939l14.23 10.767c-.03-22.971 0-11.697 0-30.473z" fill="#B3B3B3"/><path d="M0 22.65h7.47V7.812H0V22.65zm27 7.461a1.7 1.7 0 01-.967-.3 1.786 1.786 0 01-.643-.805 1.873 1.873 0 01-.014-1.393c.087-.222.215-.424.377-.594a1.76 1.76 0 01.567-.4 11.807 11.807 0 003.78-2.646c2.233-2.32 3.487-5.459 3.49-8.731-.01-3.277-1.276-6.416-3.52-8.732a11.99 11.99 0 00-3.78-2.656 1.792 1.792 0 01-.939-.99 1.874 1.874 0 01.01-1.386 1.751 1.751 0 01.947-.982 1.671 1.671 0 011.342.02c3.692 1.629 6.628 4.674 8.19 8.495a16.33 16.33 0 011.22 6.2 16.498 16.498 0 01-1.21 6.2 15.846 15.846 0 01-3.31 5.073 15.197 15.197 0 01-4.89 3.483 1.585 1.585 0 01-.65.144z" fill="#B3B3B3"/><path d="M23.69 22.816c-.38 0-.75-.137-1.044-.386a1.715 1.715 0 01-.571-.982 1.754 1.754 0 01.158-1.133c.178-.348.466-.622.817-.774a4.54 4.54 0 001.998-1.722 4.763 4.763 0 00.742-2.577 4.7 4.7 0 00-.35-1.809 4.656 4.656 0 00-1-1.477 4.621 4.621 0 00-1.43-1.034 1.682 1.682 0 01-.753-.931 1.746 1.746 0 01.044-1.213 1.67 1.67 0 01.817-.872 1.592 1.592 0 011.172-.084 7.871 7.871 0 013.008 2.35 8.222 8.222 0 011.599 3.528 8.36 8.36 0 01-.18 3.891 8.162 8.162 0 01-1.917 3.355 7.642 7.642 0 01-2.47 1.726c-.202.092-.42.14-.64.144z" fill="#B3B3B3"/></svg>